{
  "accessors": [
    {
      "bufferView": 2,
      "componentType": 5126,
      "count": 65532,
      "max": [
        2.5413599014282227,
        1.7556400299072266,
        0.9406939744949341
      ],
      "min": [
        -2.543750047683716,
        -1.7556400299072266,
        -1.056030035018921
      ],
      "type": "VEC3"
    },
    {
      "bufferView": 2,
      "byteOffset": 786384,
      "componentType": 5126,
      "count": 65532,
      "max": [
        0.9999991059303284,
        1.0,
        0.9999989867210388
      ],
      "min": [
        -0.9999985098838806,
        -0.9999995231628418,
        -1.0
      ],
      "type": "VEC3"
    },
    {
      "bufferView": 1,
      "componentType": 5126,
      "count": 65532,
      "max": [
        0.9995750188827515,
        0.9821779727935791
      ],
      "min": [
        0.00024414100334979594,
        0.00024588798987679183
      ],
      "type": "VEC2"
    },
    {
      "bufferView": 0,
      "componentType": 5125,
      "count": 300660,
      "type": "SCALAR"
    },
    {
      "bufferView": 2,
      "byteOffset": 1572768,
      "componentType": 5126,
      "count": 65532,
      "max": [
        2.544680118560791,
        0.6931489706039429,
        0.7413880228996277
      ],
      "min": [
        -0.6089540123939514,
        -1.7556400299072266,
        -1.056030035018921
      ],
      "type": "VEC3"
    },
    {
      "bufferView": 2,
      "byteOffset": 2359152,
      "componentType": 5126,
      "count": 65532,
      "max": [
        0.9999991059303284,
        0.9999834895133972,
        0.9999998807907104
      ],
      "min": [
        -0.999980092048645,
        -0.9999733567237854,
        -0.9990835189819336
      ],
      "type": "VEC3"
    },
    {
      "bufferView": 1,
      "byteOffset": 524256,
      "componentType": 5126,
      "count": 65532,
      "max": [
        0.9996870160102844,
        0.9841309785842896
      ],
      "min": [
        0.00024414100334979594,
        0.00028165100957266986
      ],
      "type": "VEC2"
    },
    {
      "bufferView": 0,
      "byteOffset": 1202640,
      "componentType": 5125,
      "count": 292095,
      "type": "SCALAR"
    },
    {
      "bufferView": 2,
      "byteOffset": 3145536,
      "componentType": 5126,
      "count": 65532,
      "max": [
        2.544680118560791,
        1.7556300163269043,
        0.8908470273017883
      ],
      "min": [
        -2.544680118560791,
        -1.7556400299072266,
        -1.056030035018921
      ],
      "type": "VEC3"
    },
    {
      "bufferView": 2,
      "byteOffset": 3931920,
      "componentType": 5126,
      "count": 65532,
      "max": [
        0.9999526143074036,
        0.9999942183494568,
        0.9999997615814209
      ],
      "min": [
        -0.9999996423721313,
        -0.9999906420707703,
        -1.0
      ],
      "type": "VEC3"
    },
    {
      "bufferView": 1,
      "byteOffset": 1048512,
      "componentType": 5126,
      "count": 65532,
      "max": [
        0.9996079802513123,
        0.9802240133285522
      ],
      "min": [
        0.00024414100334979594,
        0.0002489280013833195
      ],
      "type": "VEC2"
    },
    {
      "bufferView": 0,
      "byteOffset": 2371020,
      "componentType": 5125,
      "count": 296223,
      "type": "SCALAR"
    },
    {
      "bufferView": 2,
      "byteOffset": 4718304,
      "componentType": 5126,
      "count": 65532,
      "max": [
        1.9615099430084229,
        1.7556300163269043,
        0.9418590068817139
      ],
      "min": [
        -2.544680118560791,
        -1.7428300380706787,
        -0.6820200085639954
      ],
      "type": "VEC3"
    },
    {
      "bufferView": 2,
      "byteOffset": 5504688,
      "componentType": 5126,
      "count": 65532,
      "max": [
        0.9999715089797974,
        0.9999892115592957,
        1.0
      ],
      "min": [
        -0.9999842643737793,
        -0.9999873638153076,
        -0.9999966621398926
      ],
      "type": "VEC3"
    },
    {
      "bufferView": 1,
      "byteOffset": 1572768,
      "componentType": 5126,
      "count": 65532,
      "max": [
        0.9996870160102844,
        0.9769970178604126
      ],
      "min": [
        0.00024414100334979594,
        0.00025828598882071674
      ],
      "type": "VEC2"
    },
    {
      "bufferView": 0,
      "byteOffset": 3555912,
      "componentType": 5125,
      "count": 290964,
      "type": "SCALAR"
    },
    {
      "bufferView": 2,
      "byteOffset": 6291072,
      "componentType": 5126,
      "count": 65532,
      "max": [
        1.219789981842041,
        1.7549899816513062,
        0.977882981300354
      ],
      "min": [
        -1.3234800100326538,
        -0.17661499977111816,
        -0.6513800024986267
      ],
      "type": "VEC3"
    },
    {
      "bufferView": 2,
      "byteOffset": 7077456,
      "componentType": 5126,
      "count": 65532,
      "max": [
        0.9998561143875122,
        0.9999954700469971,
        0.9999980926513672
      ],
      "min": [
        -0.9999455213546753,
        -0.9999995827674866,
        -0.9999120235443115
      ],
      "type": "VEC3"
    },
    {
      "bufferView": 1,
      "byteOffset": 2097024,
      "componentType": 5126,
      "count": 65532,
      "max": [
        0.9997400045394897,
        0.9929199814796448
      ],
      "min": [
        0.00024414100334979594,
        0.000251134013524279
      ],
      "type": "VEC2"
    },
    {
      "bufferView": 0,
      "byteOffset": 4719768,
      "componentType": 5125,
      "count": 292275,
      "type": "SCALAR"
    },
    {
      "bufferView": 2,
      "byteOffset": 7863840,
      "componentType": 5126,
      "count": 65532,
      "max": [
        1.0191099643707275,
        1.7556300163269043,
        0.9069769978523254
      ],
      "min": [
        -2.4422800540924072,
        -0.7253689765930176,
        -0.6659799814224243
      ],
      "type": "VEC3"
    },
    {
      "bufferView": 2,
      "byteOffset": 8650224,
      "componentType": 5126,
      "count": 65532,
      "max": [
        0.9999906420707703,
        0.9999954700469971,
        0.9999998807907104
      ],
      "min": [
        -0.999958872795105,
        -0.9999929070472717,
        -0.9999207854270935
      ],
      "type": "VEC3"
    },
    {
      "bufferView": 1,
      "byteOffset": 2621280,
      "componentType": 5126,
      "count": 65532,
      "max": [
        0.9996799826622009,
        0.9848200082778931
      ],
      "min": [
        0.00024414100334979594,
        0.0002489280013833195
      ],
      "type": "VEC2"
    },
    {
      "bufferView": 0,
      "byteOffset": 5888868,
      "componentType": 5125,
      "count": 273159,
      "type": "SCALAR"
    },
    {
      "bufferView": 2,
      "byteOffset": 9436608,
      "componentType": 5126,
      "count": 65532,
      "max": [
        -0.7994400262832642,
        1.0008599758148193,
        1.056030035018921
      ],
      "min": [
        -2.543750047683716,
        -1.6670199632644653,
        -0.6902139782905579
      ],
      "type": "VEC3"
    },
    {
      "bufferView": 2,
      "byteOffset": 10222992,
      "componentType": 5126,
      "count": 65532,
      "max": [
        0.9998783469200134,
        0.999978244304657,
        1.0
      ],
      "min": [
        -0.9999799728393555,
        -0.9999902248382568,
        -0.9999805092811584
      ],
      "type": "VEC3"
    },
    {
      "bufferView": 1,
      "byteOffset": 3145536,
      "componentType": 5126,
      "count": 65532,
      "max": [
        0.9997109770774841,
        0.9802240133285522
      ],
      "min": [
        0.00024414100334979594,
        0.00025041800108738244
      ],
      "type": "VEC2"
    },
    {
      "bufferView": 0,
      "byteOffset": 6981504,
      "componentType": 5125,
      "count": 312471,
      "type": "SCALAR"
    },
    {
      "bufferView": 2,
      "byteOffset": 11009376,
      "componentType": 5126,
      "count": 65532,
      "max": [
        -0.786745011806488,
        1.7548199892044067,
        1.056030035018921
      ],
      "min": [
        -2.543750047683716,
        -1.7424099445343018,
        -0.6491789817810059
      ],
      "type": "VEC3"
    },
    {
      "bufferView": 2,
      "byteOffset": 11795760,
      "componentType": 5126,
      "count": 65532,
      "max": [
        0.9999892115592957,
        0.999969482421875,
        1.0
      ],
      "min": [
        -0.9999899864196777,
        -0.9999596476554871,
        -0.9999456405639648
      ],
      "type": "VEC3"
    },
    {
      "bufferView": 1,
      "byteOffset": 3669792,
      "componentType": 5126,
      "count": 65532,
      "max": [
        0.999055027961731,
        0.9831539988517761
      ],
      "min": [
        0.00024414100334979594,
        0.0002520869893487543
      ],
      "type": "VEC2"
    },
    {
      "bufferView": 0,
      "byteOffset": 8231388,
      "componentType": 5125,
      "count": 293934,
      "type": "SCALAR"
    },
    {
      "bufferView": 2,
      "byteOffset": 12582144,
      "componentType": 5126,
      "count": 65532,
      "max": [
        2.538670063018799,
        1.7556300163269043,
        1.0465600490570068
      ],
      "min": [
        -2.544680118560791,
        -1.7443300485610962,
        -0.7880740165710449
      ],
      "type": "VEC3"
    },
    {
      "bufferView": 2,
      "byteOffset": 13368528,
      "componentType": 5126,
      "count": 65532,
      "max": [
        0.9999993443489075,
        0.9999991059303284,
        1.0
      ],
      "min": [
        -0.999957263469696,
        -0.9999992251396179,
        -0.9998344779014587
      ],
      "type": "VEC3"
    },
    {
      "bufferView": 1,
      "byteOffset": 4194048,
      "componentType": 5126,
      "count": 65532,
      "max": [
        0.9996370077133179,
        0.9919430017471313
      ],
      "min": [
        0.00024414100334979594,
        0.00024809400201775134
      ],
      "type": "VEC2"
    },
    {
      "bufferView": 0,
      "byteOffset": 9407124,
      "componentType": 5125,
      "count": 256440,
      "type": "SCALAR"
    },
    {
      "bufferView": 2,
      "byteOffset": 14154912,
      "componentType": 5126,
      "count": 65532,
      "max": [
        2.5413599014282227,
        1.7556400299072266,
        0.38800498843193054
      ],
      "min": [
        0.9539819955825806,
        -0.20429299771785736,
        -0.7880740165710449
      ],
      "type": "VEC3"
    },
    {
      "bufferView": 2,
      "byteOffset": 14941296,
      "componentType": 5126,
      "count": 65532,
      "max": [
        0.9999956488609314,
        0.9999862313270569,
        0.9999998807907104
      ],
      "min": [
        -0.9999935030937195,
        -0.9999956488609314,
        -0.999799370765686
      ],
      "type": "VEC3"
    },
    {
      "bufferView": 1,
      "byteOffset": 4718304,
      "componentType": 5126,
      "count": 65532,
      "max": [
        0.9997410178184509,
        0.9821779727935791
      ],
      "min": [
        0.00024414100334979594,
        0.0002591210068203509
      ],
      "type": "VEC2"
    },
    {
      "bufferView": 0,
      "byteOffset": 10432884,
      "componentType": 5125,
      "count": 290340,
      "type": "SCALAR"
    },
    {
      "bufferView": 2,
      "byteOffset": 15727680,
      "componentType": 5126,
      "count": 26122,
      "max": [
        2.537179946899414,
        1.7549099922180176,
        0.9016450047492981
      ],
      "min": [
        -0.8049610257148743,
        -0.20587100088596344,
        -0.6415500044822693
      ],
      "type": "VEC3"
    },
    {
      "bufferView": 2,
      "byteOffset": 16041144,
      "componentType": 5126,
      "count": 26122,
      "max": [
        0.9999893307685852,
        0.9999995231628418,
        0.9999998807907104
      ],
      "min": [
        -0.9999967813491821,
        -0.9999956488609314,
        -0.9997836351394653
      ],
      "type": "VEC3"
    },
    {
      "bufferView": 1,
      "byteOffset": 5242560,
      "componentType": 5126,
      "count": 26122,
      "max": [
        0.999422013759613,
        0.9622319936752319
      ],
      "min": [
        0.00024414100334979594,
        0.0002538750122766942
      ],
      "type": "VEC2"
    },
    {
      "bufferView": 0,
      "byteOffset": 11594244,
      "componentType": 5125,
      "count": 101451,
      "type": "SCALAR"
    }
  ],
  "asset": {
    "extras": {
      "author": "Serhii Revenko (https://sketchfab.com/r.sergey01)",
      "license": "CC-BY-4.0 (http://creativecommons.org/licenses/by/4.0/)",
      "source": "https://sketchfab.com/3d-models/attacked-and-destroyed-car-96b36728cc9a4abfa2a17af74f48ad12",
      "title": "Attacked And Destroyed Car"
    },
    "generator": "Sketchfab-16.21.0",
    "version": "2.0"
  },
  "bufferViews": [
    {
      "buffer": 0,
      "byteLength": 12000048,
      "name": "floatBufferViews",
      "target": 34963
    },
    {
      "buffer": 0,
      "byteLength": 5451536,
      "byteOffset": 12000048,
      "byteStride": 8,
      "name": "floatBufferViews",
      "target": 34962
    },
    {
      "buffer": 0,
      "byteLength": 16354608,
      "byteOffset": 17451584,
      "byteStride": 12,
      "name": "floatBufferViews",
      "target": 34962
    }
  ],
  "buffers": [
    {
      "byteLength": 33806192,
      "uri": "scene.bin"
    }
  ],
  "extensionsUsed": [
    "KHR_materials_unlit"
  ],
  "images": [
    {
      "uri": "textures/tex_u1_v1_baseColor.jpeg"
    }
  ],
  "materials": [
    {
      "doubleSided": true,
      "extensions": {
        "KHR_materials_unlit": {}
      },
      "name": "tex_u1_v1",
      "pbrMetallicRoughness": {
        "baseColorTexture": {
          "index": 0
        },
        "metallicFactor": 0.0
      }
    }
  ],
  "meshes": [
    {
      "name": "Object_0",
      "primitives": [
        {
          "attributes": {
            "NORMAL": 1,
            "POSITION": 0,
            "TEXCOORD_0": 2
          },
          "indices": 3,
          "material": 0,
          "mode": 4
        }
      ]
    },
    {
      "name": "Object_1",
      "primitives": [
        {
          "attributes": {
            "NORMAL": 5,
            "POSITION": 4,
            "TEXCOORD_0": 6
          },
          "indices": 7,
          "material": 0,
          "mode": 4
        }
      ]
    },
    {
      "name": "Object_2",
      "primitives": [
        {
          "attributes": {
            "NORMAL": 9,
            "POSITION": 8,
            "TEXCOORD_0": 10
          },
          "indices": 11,
          "material": 0,
          "mode": 4
        }
      ]
    },
    {
      "name": "Object_3",
      "primitives": [
        {
          "attributes": {
            "NORMAL": 13,
            "POSITION": 12,
            "TEXCOORD_0": 14
          },
          "indices": 15,
          "material": 0,
          "mode": 4
        }
      ]
    },
    {
      "name": "Object_4",
      "primitives": [
        {
          "attributes": {
            "NORMAL": 17,
            "POSITION": 16,
            "TEXCOORD_0": 18
          },
          "indices": 19,
          "material": 0,
          "mode": 4
        }
      ]
    },
    {
      "name": "Object_5",
      "primitives": [
        {
          "attributes": {
            "NORMAL": 21,
            "POSITION": 20,
            "TEXCOORD_0": 22
          },
          "indices": 23,
          "material": 0,
          "mode": 4
        }
      ]
    },
    {
      "name": "Object_6",
      "primitives": [
        {
          "attributes": {
            "NORMAL": 25,
            "POSITION": 24,
            "TEXCOORD_0": 26
          },
          "indices": 27,
          "material": 0,
          "mode": 4
        }
      ]
    },
    {
      "name": "Object_7",
      "primitives": [
        {
          "attributes": {
            "NORMAL": 29,
            "POSITION": 28,
            "TEXCOORD_0": 30
          },
          "indices": 31,
          "material": 0,
          "mode": 4
        }
      ]
    },
    {
      "name": "Object_8",
      "primitives": [
        {
          "attributes": {
            "NORMAL": 33,
            "POSITION": 32,
            "TEXCOORD_0": 34
          },
          "indices": 35,
          "material": 0,
          "mode": 4
        }
      ]
    },
    {
      "name": "Object_9",
      "primitives": [
        {
          "attributes": {
            "NORMAL": 37,
            "POSITION": 36,
            "TEXCOORD_0": 38
          },
          "indices": 39,
          "material": 0,
          "mode": 4
        }
      ]
    },
    {
      "name": "Object_10",
      "primitives": [
        {
          "attributes": {
            "NORMAL": 41,
            "POSITION": 40,
            "TEXCOORD_0": 42
          },
          "indices": 43,
          "material": 0,
          "mode": 4
        }
      ]
    }
  ],
  "nodes": [
    {
      "children": [
        1
      ],
      "matrix": [
        1.0,
        0.0,
        0.0,
        0.0,
        0.0,
        2.220446049250313e-16,
        -1.0,
        0.0,
        0.0,
        1.0,
        2.220446049250313e-16,
        0.0,
        0.0,
        0.0,
        0.0,
        1.0
      ],
      "name": "Sketchfab_model"
    },
    {
      "children": [
        2,
        3,
        4,
        5,
        6,
        7,
        8,
        9,
        10,
        11,
        12
      ],
      "name": "shareModel.obj.cleaner.materialmerger.gles"
    },
    {
      "mesh": 0,
      "name": "Object_2"
    },
    {
      "mesh": 1,
      "name": "Object_3"
    },
    {
      "mesh": 2,
      "name": "Object_4"
    },
    {
      "mesh": 3,
      "name": "Object_5"
    },
    {
      "mesh": 4,
      "name": "Object_6"
    },
    {
      "mesh": 5,
      "name": "Object_7"
    },
    {
      "mesh": 6,
      "name": "Object_8"
    },
    {
      "mesh": 7,
      "name": "Object_9"
    },
    {
      "mesh": 8,
      "name": "Object_10"
    },
    {
      "mesh": 9,
      "name": "Object_11"
    },
    {
      "mesh": 10,
      "name": "Object_12"
    }
  ],
  "samplers": [
    {
      "magFilter": 9729,
      "minFilter": 9987,
      "wrapS": 10497,
      "wrapT": 10497
    }
  ],
  "scene": 0,
  "scenes": [
    {
      "name": "Sketchfab_Scene",
      "nodes": [
        0
      ]
    }
  ],
  "textures": [
    {
      "sampler": 0,
      "source": 0
    }
  ]
}
